<svg width="320" height="320" viewBox="0 0 320 320" fill="none" xmlns="http://www.w3.org/2000/svg">
  <rect width="320" height="320" rx="84" fill="#0A1C3D"/>
  <g transform="translate(36 36)">
    <path d="M124 24C166.147 24 198.751 39.6151 221.811 70.8454C225.643 76.0321 224.975 83.2576 220.254 87.6517L174.182 130.532C168.402 135.912 159.458 135.664 154.028 129.931C147.033 122.546 137.638 118.853 125.844 118.853C112.923 118.853 102.43 123.663 94.3669 133.281L61.2891 83.3666C75.6418 44.4555 96.5455 24 124 24Z" fill="#2C84D9"/>
    <path d="M61.2891 83.3666L94.3669 133.281C95.4296 134.885 95.4992 136.955 94.5466 138.628L63.4294 193.281C37.7765 169.91 24.95 139.396 24.95 101.741C24.95 95.406 25.6572 89.2813 27.0715 83.3666C31.8373 63.4494 40.8332 46.4243 54.059 32.2913C56.4668 29.7184 60.0646 29.2865 62.9778 31.2481L102.666 57.9686C106.07 60.2596 106.966 64.9015 104.673 68.3046L61.2891 83.3666Z" fill="#20349B"/>
    <path d="M63.4294 193.281L94.5466 138.628C95.4935 136.965 97.2812 136.035 99.1801 136.253C106.924 137.141 115.542 146.292 125.034 146.292C137.222 146.292 146.971 142.604 154.283 135.228C159.806 129.657 168.675 129.307 174.555 134.497L220.956 175.461C225.9 179.826 226.661 187.243 222.659 192.486C199.435 222.905 166.548 238.115 123.998 238.115C100.047 238.115 79.8576 230.768 63.4294 216.074V193.281Z" fill="#1D66AC"/>
  </g>
</svg>
